<mxfile host="app.diagrams.net" agent="Mozilla/5.0 (Windows NT 10.0; Win64; x64) AppleWebKit/537.36 (KHTML, like Gecko) Chrome/130.0.0.0 Safari/537.36" version="24.8.4">
  <diagram name="ページ1" id="eGr43dIP912KuhUovYmJ">
    <mxGraphModel dx="2074" dy="1145" grid="1" gridSize="10" guides="1" tooltips="1" connect="1" arrows="1" fold="1" page="1" pageScale="1" pageWidth="827" pageHeight="1169" math="0" shadow="0">
      <root>
        <mxCell id="0" />
        <mxCell id="1" parent="0" />
        <mxCell id="V76fpFUeu1x7VUsPfNz0-1" value="てｓｔ" style="whiteSpace=wrap;html=1;" parent="1" vertex="1">
          <mxGeometry x="310" y="290" width="120" height="60" as="geometry" />
        </mxCell>
        <mxCell id="dfRFNjcfw3LE3uAgFTVa-1" value="" style="shape=image;verticalLabelPosition=bottom;labelBackgroundColor=default;verticalAlign=top;aspect=fixed;imageAspect=0;image=data:image/png,iVBORw0KGgoAAAANSUhEUgAAA1kAAAIVCAYAAAAj7DWQAAAAAXNSR0IArs4c6QAAAARnQU1BAACxjwv8YQUAAAAJcEhZcwAAFiUAABYlAUlSJPAAABsmSURBVHhe7d1BruPYma1RSR127hAMdjj/EfmywzHchtihnkgwhURahdhH+p8YYa8FCCSddUB/clQhttWo8+3u9A/zPG/Xruu2a6txHE/DMOxPuXfee9TZld6M3pzenN42ejN6c3pzetvozejNffLsZb8CAABQwMgCAAAoZGQBAAAUMrIAAAAKGVkAAACFjCwAAIBCRhYAAEAhIwsAAKCQkQUAAFDofLvb7x/8f3BuozejN6c3p7eN3ozenN7cp3vX//nVsizb9XJp/+/Wjzq7+vn5OX19fe1P/7d/fif/K//5/kVv7pNnz9/f3/8xsj71vxT/9N/+fwT+SW9Ob05vG70ZvTm9Ob1tWnr//pfXP+Uvpf+U/iX8rzH5l/+F/3z/Tm/uk2f9knWnt43ejN6c3pzeNnozenN6c3rb6M38Kb2vTU8AAACeMrIAAAAKGVkAAACFjCwAAIBCRhYAAEAhIwsAAKCQkQUAAFDIyAIAAChkZAEAABQysgAAAAoZWQAAAIWMLACAP8g8z02fZVm2z7N/9qvPUWfXT3oWfkfn6/V62+8f1j/Uq8vltQ02TdOp7/v9KffOe486u9Kb0ZvTm9PbRm9Gb05vTm8bvRm9uU+efe1bAQDg47qua/6sfylcP8/+2a8+R51dP+lZ+B2db3f7/cNfP72++gd3HMfTMAz7U+6d9x51dqU3ozenN6e3jd6M3pzenN42ejN6c58865csAACAQkYWAABAISMLAACgkJEFAABQyMgCAAAoZGQBAAAUMrIAAAAKGVkAAACFjCwAAIBCRhYAAEAhIwsAAKCQkQUAcLB5nn/5WZbl6b/+q8967k87u37Ss/A7Ol+v19t+/7D+oV5dLq9tsGmaTn3f70+5d9571NmV3ozenN6c3jZ6M3pzenN62+jN6M198uxr3woAACW6ros+61/unv3rv/qs5/60s+snPQu/o/Ptbr9/+Oun11f/4I7jeBqGYX/KvfPeo86u9Gb05vTm9LbRm9Gb05vT20ZvRm/uk2f9kgUAAFDIyAIAAChkZAEAABQysgAAAAoZWQAAAIWMLAAAgEJGFgAAQCEjCwAAoJCRBQAAUMjIAgAAKGRkAQAAFDKyAAD+P5nn+fFZlmX7/P1fa/m8evad9x51dv2kZ+F3dL5er7f9/mH9Q726XF7bYNM0nfq+359y77z3qLMrvRm9Ob05vW30ZvTm9Ob0ttGb0Zv75NnXvhUAAP5PXdf9x2f9y9n6efbPks+rZ99571Fn1096Fn5H59vdfv/w10+vr/7BHcfxNAzD/pR7571HnV3pzejN6c3pbaM3ozenN6e3jd6M3twnz/olCwAAoJCRBQAAUMjIAgAAKGRkAQAAFDKyAAAAChlZAAAAhYwsAACAQkYWAABAISMLAACgkJEFAABQyMgCAAAoZGQBAAAUOt/u9vuHeZ63a9d127XVOI6nYRj2p9w77z3q7EpvRm9Ob05vG70Zvbn/td5///vf2/Vyaf/vqZdl2a6vnF39/Pycvr6+9qfcO+896uwq7f3nnwF/nnN6c61nz9/f3/8xsvwfgTZ6M3pzenN62+jN6M39r/X+61//2q7+Uvprn+pd/+f+zp/nnN5c61m/ZN3pbaM3ozenN6e3jd6M3pzenN42ejN/Su9r0xMAAICnjCwAAIBCRhYAAEAhIwsAAKCQkQUAAFDIyAIAAChkZAEAABQysgAAAAoZWQAAAIWMLAAAgEJGFgAAQCEjCwDgbp7nX36WZdk+z/7Zrz7vnF0/R7z3qLPrJz0Lv6Pz9Xq97fcP6x/q1eXy2gabpunU9/3+lHvnvUedXenN6M3pzeltozejN6c3p7eN3oze3CfPvvatAAD8l+i6Lv6sf8FaP8/+2a8+75xdP0e896iz6yc9C7+j8+1uv3/466fXV//gjuN4GoZhf8q9896jzq70ZvTm9Ob0ttGb0ZvTm9PbRm9Gb+6TZ/2SBQAAUMjIAgAAKGRkAQAAFDKyAAAAChlZAAAAhYwsAACAQkYWAABAISMLAACgkJEFAABQyMgCAAAoZGQBAAAUMrIAgP9a8zz/x2dZlu3z7J/96nPU2fXzp/17fufs+knPwu/ofL1eb/v9w/qHenW5vLbBpmk69X2/P+Xeee9RZ1d6M3pzenN62+jN6M3pzeltozejN/fJs699KwAAv7mu655+1r8krZ9n/+xXn6POrp8/7d/zO2fXT3oWfkfn291+//DXT6+v/sEdx/E0DMP+lHvnvUedXenN6M3pzeltozejN6c3p7eN3oze3CfP+iULAACgkJEFAABQyMgCAAAoZGQBAAAUMrIAAAAKGVkAAACFjCwAAIBCRhYAAEAhIwsAAKCQkQUAAFDIyAIAAChkZAEAf5R5nrfPsiyP+5bPeu5PO7t+/rR/z++cXT/pWfgdna/X622/f1j/UK8ul9c22DRNp77v96fcO+896uxKb0ZvTm9Obxu9Gb05vTm9bfRm9OY+efa1bwUA4ABd1z0+6192/v6cftZzf9rZ9fOn/Xt+5+z6Sc/C7+h8u9vvH/766fXVP7jjOJ6GYdifcu+896izK70ZvTm9Ob1t9Gb05vTm9LbRm9Gb++RZv2QBAAAUMrIAAAAKGVkAAACFjCwAAIBCRhYAAEAhIwsAAKCQkQUAAFDIyAIAAChkZAEAABQysgAAAAoZWQAAAIWMLAAAgELn7+/v237/sCzLdr1cXttgPz8/p6+vr/0p9857jzq70pvRm9Ob09tGb0ZvTm9Obxu9Gb25T5597VsBAADgqfPtbr9/mOd5u3Zdt11bjeN4GoZhf8q9896jzq70ZvTm9Ob0ttGb0ZvTm9PbRm9Gb+6TZ/2SBQAAUMjIAgAAKGRkAQAAFDKyAAAAChlZAAAAhYwsAACAQkYWAABAISMLAACgkJEFAABQyMgCAAAoZGQBAAAUOl+v19t+/7Asy3a9XF7bYNM0nfq+359y77z3qLMrvRm9Ob05vW30ZvTm9Ob0ttGb0Zv75NnXvhUAAACeMrIAAAAKnW93+/3DPM/bteu67dpqHMfTMAz7U+6d9x51dqU3ozenN6e3jd6M3pzenN42ejN6c58865csAACAQkYWAABAISMLAACgkJEFAABQyMgCAAAoZGQBAAAUMrIAAAAKGVkAAACFjCwAAIBCRhYAAEAhIwsAAKDQ+Xq93vb7h2VZtuvl8toGm6bp1Pf9/pR7571HnV3pzejN6c3pbaM3ozenN6e3jd6M3twnz772rQAAAPCUkQUAAFDofLvb7x/med6uXddt11bjOJ6GYdifcu+896izK70ZvTm9Ob1t9Gb05vTm9LbRm9Gb++RZv2QBAAAUMrIAAAAKGVkAAACFjCwAAIBCRhYAAEAhIwsAAKCQkQUAAFDIyAIAAChkZAEAABQysgAAAAoZWQAAAIXO1+v1tt8/LMuyXS+X1zbYNE2nvu/3p9w77z3q7EpvRm9Ob05vG70ZvTm9Ob1t9Gb05j559rVvBQAAgKeMLAAAgELn291+/zDP83btum67thrH8TQMw/6Ue+e9R51d6c3ozenN6W2jN6M3pzent43ejN7cJ8/6JQsAAKCQkQUAAFDIyAIAAChkZAEAABQysgAAAAoZWQAAAIWMLAAAgEJGFgAAQCEjCwAAoJCRBQAAUMjIAgAAKGRkAQAAFDp/f3/f9vuHZVm26+Xy2gb7+fk5fX197U+5d9571NmV3ozenN6c3jZ6M3pzenN62+jN6M198uxr3woAAABPnW93+/3DPM/bteu67dpqHMfTMAz7U+6d9x51dqU3ozenN6e3jd6M3pzenN42ejN6c58865csAACAQkYWAABAISMLAACgkJEFAABQyMgCAAAoZGQBAAAUMrIAAAAKGVkAAACFjCwAAIBCRhYAAEAhIwsAAKDQ+Xq93vb7h2VZtuvl8toGm6bp1Pf9/pR7571HnV3pzejN6c3pbaM3ozenN6e3jd6M3twnz772rQAAAPCUkQUAAFDofLvb7x/med6uXddt11bjOJ6GYdifcu+896izK70ZvTm9Ob1t9Gb05vTm9LbRm9Gb++RZv2QBAAAUMrIAAAAKGVkAAACFjCwAAIBCRhYAAEAhIwsAAKCQkQUAAFDIyAIAAChkZAEAABQysgAAAAoZWQAAAIXO1+v1tt8/LMuyXS+X1zbYNE2nvu/3p9w77z3q7EpvRm9Ob05vG70ZvTm9Ob1t9Gb05j559rVvBQAAgKeMLAAAgELn291+/zDP83btum67thrH8TQMw/6Ue+e9R51d6c3ozenN6W2jN6M3pzent43ejN7cJ8/6JQsAAKCQkQUAAFDIyAIAAChkZAEAABQysgAAAAoZWQAAAIWMLAAAgEJGFgAAQCEjCwAAoJCRBQAAUMjIAgAAKHS+Xq+3/f5hWZbterm8tsGmaTr1fb8/5d5571FnV3ozenN6c3rb6M3ozenN6W2jN6M398mzr30rAAAAPGVkAQAAFDrf7vb7h3met2vXddu11TiOp2EY9qfcO+896uxKb0ZvTm9Obxu9Gb05vTm9bfRm9OY+edYvWQAAAIWMLAAAgEJGFgAAQCEjCwAAoJCRBQAAUMjIAgAAKGRkAQAAFDKyAAAAChlZAAAAhYwsAACAQkYWAABAISMLAACg0Pn7+/u23z8sy7JdL5fXNtjPz8/p6+trf8q9896jzq70ZvTm9Ob0ttGb0ZvTm9PbRm9Gb+6TZ1/7VgAAAHjqfLvb7x/med6uXddt11bjOJ6GYdifcu+896izK70ZvTm9Ob1t9Gb05vTm9LbRm9Gb++RZv2QBAAAUMrIAAAAKGVkAAACFjCwAAIBCRhYAAEAhIwsAAKCQkQUAAFDIyAIAAChkZAEAABQysgAAAAoZWQAAAIXO1+v1tt8/LMuyXS+X1zbYNE2nvu/3p9w77z3q7EpvRm9Ob05vG70ZvTm9Ob1t9Gb05j559rVvBQAAgKeMLAAAgELn291+/zDP83btum67thrH8TQMw/6Ue+e9R51d6c3ozenN6W2jN6M3pzent43ejN7cJ8/6JQsAAKCQkQUAAFDIyAIAAChkZAEAABQysgAAAAoZWQAAAIWMLAAAgEJGFgAAQCEjCwAAoJCRBQAAUMjIAgAAKHS+Xq+3/f5hWZbterm8tsGmaTr1fb8/5d5571FnV3ozenN6c3rb6M3ozenN6W2jN6M398mzr30rAAAAPGVkAQAAFDrf7vb7h3met2vXddu11TiOp2EY9qfcO+896uxKb0ZvTm9Obxu9Gb05vTm9bfRm9OY+edYvWQAAAIWMLAAAgEJGFgAAQCEjCwAAoJCRBQAAUMjIAgAAKGRkAQAAFDKyAAAAChlZAAAAhYwsAACAQkYWAABAofP1er3t9w/LsmzXy+W1DTZN06nv+/0p9857jzq70pvRm9Ob09tGb0ZvTm9Obxu9Gb25T5597VsBAADgKSMLAACg0Pl2t98/zPO8Xbuu266txnE8DcOwP+Xeee9RZ1d6M3pzenN62+jN6M3pzeltozejN/fJs37JAgAAKGRkAQAAFDKyAAAAChlZAAAAhYwsAACAQkYWAABAISMLAACgkJEFAABQyMgCAAAoZGQBAAAUMrIAAAAKGVkAAACFzt/f37f9/mFZlu16uby2wX5+fk5fX1/7U+6d9x51dqU3ozenN6e3jd6M3pzenN42ejN6c588+9q3AgAAwFPn291+/zDP83btum67thrH8TQMw/6Ue+e9R51d6c3ozenN6W2jN6M3pzent43ejN7cJ8/6JQsAAKCQkQUAAFDIyAIAAChkZAEAABQysgAAAAoZWQAAAIWMLAAAgEJGFgAAQCEjCwAAoJCRBQAAUMjIAgAAKHS+Xq+3/f5hWZbterm8tsGmaTr1fb8/5d5571FnV3ozenN6c3rb6M3ozenN6W2jN6M398mzr30rAAAAPGVkAQAAFDrf7vb7h3met2vXddu11TiOp2EY9qfcO+896uxKb0ZvTm9Obxu9Gb05vTm9bfRm9OY+edYvWQAAAIWMLAAAgEJGFgAAQCEjCwAAoJCRBQAAUMjIAgAAKGRkAQAAFDKyAAAAChlZAAAAhYwsAACAQkYWAABAofP1er3t9w/LsmzXy+W1DTZN06nv+/0p9857jzq70pvRm9Ob09tGb0ZvTm9Obxu9Gb25T5597VsBAADgKSMLAACg0Pl2t98/zPO8Xbuu266txnE8DcOwP+Xeee9RZ1d6M3pzenN62+jN6M3pzeltozejN/fJs37JAgAAKGRkAQAAFDKyAAAAChlZAAAAhYwsAACAQkYWAABAISMLAACgkJEFAABQyMgCAAAoZGQBAAAUMrIAAAAKna/X622/f1iWZbteLq9tsGmaTn3f70+5d9571NmV3ozenN6c3jZ6M3pzenN62+jN6M198uxr3woAAABPGVkAAACFzre7/f5hnuft2nXddm01juNpGIb9KffOe486u9Kb0ZvTm9PbRm9Gb05vTm8bvRm9uU+e9UsWAABAISMLAACgkJEFAABQyMgCAAAoZGQBAAAUMrIAAAAKGVkAAACFjCwAAIBCRhYAAEAhIwsAAKCQkQUAAFDIyAIAACh0/v7+vu33D8uybNfL5bUN9vPzc/r6+tqfcu+896izK70ZvTm9Ob1t9Gb05vTm9LbRm9Gb++TZ174VAAAAnjrf7vb7h3met2vXddu11TiOp2EY9qfcO+896uxKb0ZvTm9Obxu9Gb05vTm9bfRm9OY+edYvWQAAAIWMLAAAgEJGFgAAQCEjCwAAoJCRBQAAUMjIAgAAKGRkAQAAFDKyAAAAChlZAAAAhYwsAACAQkYWAABAofP1er3t9w/LsmzXy+W1DTZN06nv+/0p9857jzq70pvRm9Ob09tGb0ZvTm9Obxu9Gb25T5597VsBAADgKSMLAACg0Pl2t98/zPO8Xbuu266txnE8DcOwP+Xeee9RZ1d6M3pzenN62+jN6M3pzeltozejN/fJs37JAgAAKGRkAQAAFDKyAAAAChlZAAAAhYwsAACAQkYWAABAISMLAACgkJEFAABQyMgCAAAoZGQBAAAUMrIAAAAKna/X622/f1iWZbteLq9tsGmaTn3f70+5d9571NmV3ozenN6c3jZ6M3pzenN62+jN6M198uxr3woAAABPGVkAAACFzre7/f5hnuft2nXddm01juNpGIb9KffOe486u9Kb0ZvTm9PbRm9Gb05vTm8bvRm9uU+e9UsWAABAISMLAACgkJEFAABQyMgCAAAoZGQBAAAUMrIAAAAKGVkAAACFjCwAAIBCRhYAAEAhIwsAAKCQkQUAAFDofL1eb/v9w7Is2/VyeW2DTdN06vt+f8q9896jzq70ZvTm9Ob0ttGb0ZvTm9PbRm9Gb+6TZ1/7VgAAAHjKyAIAACh0vt3t9w/zPG/Xruu2a6txHE/DMOxPuXfee9TZld6M3pzenN42ejN6c3pzetvozejNffKsX7IAAAAKGVkAAACFjCwAAIBCRhYAAEAhIwsAAKCQkQUAAFDIyAIAAChkZAEAABQysgAAAAoZWQAAAIWMLAAAgEJGFgAAQKHz9/f3bb9/WJZlu14ur22wn5+f09fX1/6Ue+e9R51d6c3ozenN6W2jN6M3pzent43ejN7cJ8++9q0AAADw1Pl2t98/zPO8Xbuu266txnE8DcOwP+Xeee9RZ1d6M3pzenN62+jN6M3pzeltozejN/fJs37JAgAAKGRkAQAAFDKyAAAAChlZAAAAhYwsAACAQkYWAABAISMLAACgkJEFAABQyMgCAAAoZGQBAAAUMrIAAAAKna/X622/f1iWZbteLq9tsGmaTn3f70+5d9571NmV3ozenN6c3jZ6M3pzenN62+jN6M198uxr3woAAABPGVkAAACFzre7/f5hnuft2nXddm01juNpGIb9KffOe486u9Kb0ZvTm9PbRm9Gb05vTm8bvRm9uU+e9UsWAABAISMLAACgkJEFAABQyMgCAAAoZGQBAAAUMrIAAAAKGVkAAACFjCwAAIBCRhYAAEAhIwsAAKCQkQUAAFDofL1eb/v9w7Is2/VyeW2DTdN06vt+f8q9896jzq70ZvTm9Ob0ttGb0ZvTm9PbRm9Gb+6TZ1/7VgAAAHjKyAIAACh0vt3t9w/zPG/Xruu2a6txHE/DMOxPuXfee9TZld6M3pzenN42ejN6c3pzetvozejNffKsX7IAAAAKGVkAAACFjCwAAIBCRhYAAEAhIwsAAKCQkQUAAFDIyAIAAChkZAEAABQysgAAAAoZWQAAAIWMLAAAgELn6/V62+8flmXZrpfLaxtsmqZT3/f7U+6d9x51dqU3ozenN6e3jd6M3pzenN42ejN6c588+9q3AgAAwFNGFgAAQKHz7W6/f5jnebt2XbddW43jeBqGYX/KvfPeo86u9Gb05vTm9LbRm9Gb05vT20ZvRm/uk2f9kgUAAFDIyAIAAChkZAEAABQysgAAAAoZWQAAAIWMLAAAgEJGFgAAQCEjCwAAoJCRBQAAUMjIAgAAKGRkAQAAFDKyAAAACp2/v79v+/3Dsizb9XJ5bYP9/Pycvr6+9qfcO+896uxKb0ZvTm9Obxu9Gb05vTm9bfRm9OY+efa1bwUAAICnzre7/f5hnuft2nXddm01juNpGIb9KffOe486u9Kb0ZvTm9PbRm9Gb05vTm8bvRm9uU+e9UsWAABAISMLAACgkJEFAABQyMgCAAAoZGQBAAAUMrIAAAAKGVkAAACFjCwAAIBCRhYAAEAhIwsAAKCQkQUAAFDofL1eb/v9w7Is2/VyeW2DTdN06vt+f8q9896jzq70ZvTm9Ob0ttGb0ZvTm9PbRm9Gb+6TZ1/7VgAAAHjKyAIAACh0vt3t9w/zPG/Xruu2a6txHE/DMOxPuXfee9TZld6M3pzenN42ejN6c3pzetvozejNffKsX7IAAAAKGVkAAACFjCwAAIBCRhYAAEAhIwsAAKCQkQUAAFDIyAIAAChkZAEAABQysgAAAAoZWQAAAIWMLAAAgELn6/V62+8flmXZrpfLaxtsmqZT3/f7U+6d9x51dqU3ozenN6e3jd6M3pzenN42ejN6c588+9q3AgAAwFNGFgAAQKHz7W6/f5jnebt2XbddW43jeBqGYX/KvfPeo86u9Gb05vTm9LbRm9Gb05vT20ZvRm/uk2f9kgUAAFDIyAIAAChkZAEAABQysgAAAAoZWQAAAIWMLAAAgEJGFgAAQCEjCwAAoJCRBQAAUMjIAgAAKHM6/T99zPLbihyA7gAAAABJRU5ErkJggg==;" vertex="1" parent="1">
          <mxGeometry x="20" y="380" width="857" height="533" as="geometry" />
        </mxCell>
      </root>
    </mxGraphModel>
  </diagram>
</mxfile>
